<?xml version="1.0" encoding="UTF-8" ?>
<svg version="1.1" width="256" height="256" xmlns="http://www.w3.org/2000/svg" shape-rendering="crispEdges">
<rect x="88" y="48" width="32" height="8" fill="#000000" />
<rect x="88" y="56" width="8" height="24" fill="#000000" />
<rect x="96" y="56" width="8" height="8" fill="#ECB76E" />
<rect x="104" y="56" width="16" height="8" fill="#E7A54A" />
<rect x="120" y="56" width="32" height="8" fill="#000000" />
<rect x="96" y="64" width="16" height="8" fill="#E7A54A" />
<rect x="112" y="64" width="40" height="8" fill="#E49D3A" />
<rect x="152" y="64" width="8" height="32" fill="#000000" />
<rect x="64" y="72" width="24" height="8" fill="#000000" />
<rect x="96" y="72" width="8" height="8" fill="#E7A54A" />
<rect x="104" y="72" width="8" height="40" fill="#E49D3A" />
<rect x="112" y="72" width="16" height="8" fill="#000000" />
<rect x="128" y="72" width="24" height="8" fill="#E49D3A" />
<rect x="64" y="80" width="8" height="24" fill="#000000" />
<rect x="72" y="80" width="8" height="8" fill="#ECB76E" />
<rect x="80" y="80" width="16" height="8" fill="#E7A54A" />
<rect x="96" y="80" width="8" height="16" fill="#E49D3A" />
<rect x="112" y="80" width="24" height="8" fill="#E49D3A" />
<rect x="136" y="80" width="8" height="40" fill="#E3C69E" />
<rect x="144" y="80" width="8" height="8" fill="#E49D3A" />
<rect x="72" y="88" width="16" height="8" fill="#E7A54A" />
<rect x="88" y="88" width="8" height="8" fill="#E49D3A" />
<rect x="112" y="88" width="16" height="8" fill="#E49D3A" />
<rect x="128" y="88" width="8" height="24" fill="#000000" />
<rect x="144" y="88" width="8" height="24" fill="#E3C69E" />
<rect x="176" y="88" width="24" height="8" fill="#000000" />
<rect x="72" y="96" width="8" height="40" fill="#000000" />
<rect x="80" y="96" width="8" height="32" fill="#E49D3A" />
<rect x="88" y="96" width="16" height="8" fill="#000000" />
<rect x="112" y="96" width="8" height="8" fill="#E49D3A" />
<rect x="120" y="96" width="8" height="16" fill="#000000" />
<rect x="152" y="96" width="8" height="8" fill="#E3C69E" />
<rect x="160" y="96" width="16" height="8" fill="#000000" />
<rect x="176" y="96" width="16" height="16" fill="#E49D3A" />
<rect x="192" y="96" width="8" height="32" fill="#000000" />
<rect x="88" y="104" width="16" height="32" fill="#E49D3A" />
<rect x="112" y="104" width="8" height="8" fill="#000000" />
<rect x="152" y="104" width="8" height="8" fill="#000000" />
<rect x="160" y="104" width="8" height="48" fill="#E3C69E" />
<rect x="168" y="104" width="8" height="8" fill="#E49D3A" />
<rect x="104" y="112" width="32" height="8" fill="#E3C69E" />
<rect x="144" y="112" width="8" height="8" fill="#000000" />
<rect x="152" y="112" width="8" height="48" fill="#E3C69E" />
<rect x="168" y="112" width="8" height="16" fill="#E3C69E" />
<rect x="176" y="112" width="8" height="24" fill="#E49D3A" />
<rect x="184" y="112" width="8" height="8" fill="#000000" />
<rect x="104" y="120" width="8" height="16" fill="#E49D3A" />
<rect x="112" y="120" width="24" height="8" fill="#E3C69E" />
<rect x="136" y="120" width="8" height="8" fill="#000000" />
<rect x="144" y="120" width="8" height="40" fill="#E3C69E" />
<rect x="184" y="120" width="8" height="16" fill="#E49D3A" />
<rect x="200" y="120" width="8" height="24" fill="#000000" />
<rect x="80" y="128" width="8" height="16" fill="#000000" />
<rect x="112" y="128" width="8" height="8" fill="#E49D3A" />
<rect x="120" y="128" width="8" height="8" fill="#E3C69E" />
<rect x="128" y="128" width="8" height="8" fill="#000000" />
<rect x="136" y="128" width="8" height="8" fill="#E3C69E" />
<rect x="168" y="128" width="8" height="8" fill="#E49D3A" />
<rect x="192" y="128" width="8" height="8" fill="#E49D3A" />
<rect x="88" y="136" width="40" height="8" fill="#000000" />
<rect x="128" y="136" width="16" height="8" fill="#0A7030" />
<rect x="168" y="136" width="8" height="8" fill="#E3C69E" />
<rect x="176" y="136" width="24" height="8" fill="#000000" />
<rect x="112" y="144" width="8" height="8" fill="#0A7030" />
<rect x="120" y="144" width="16" height="8" fill="#000000" />
<rect x="136" y="144" width="8" height="24" fill="#0A7030" />
<rect x="168" y="144" width="8" height="8" fill="#000000" />
<rect x="184" y="144" width="16" height="8" fill="#000000" />
<rect x="112" y="152" width="8" height="16" fill="#000000" />
<rect x="120" y="152" width="16" height="8" fill="#E49D3A" />
<rect x="160" y="152" width="8" height="32" fill="#000000" />
<rect x="120" y="160" width="8" height="8" fill="#E49D3A" />
<rect x="128" y="160" width="8" height="16" fill="#000000" />
<rect x="144" y="160" width="8" height="16" fill="#0A7030" />
<rect x="152" y="160" width="8" height="8" fill="#000000" />
<rect x="120" y="168" width="8" height="8" fill="#000000" />
<rect x="136" y="168" width="8" height="16" fill="#000000" />
<rect x="152" y="168" width="8" height="8" fill="#E49D3A" />
<rect x="168" y="168" width="8" height="8" fill="#000000" />
<rect x="144" y="176" width="16" height="16" fill="#000000" />
<rect x="176" y="192" width="8" height="8" fill="#7DC9EA" />
<rect x="136" y="200" width="8" height="8" fill="#7DC9EA" />
<rect x="168" y="200" width="8" height="8" fill="#7DC9EA" />
<rect x="144" y="208" width="24" height="8" fill="#7DC9EA" />
<rect x="192" y="208" width="8" height="8" fill="#7DC9EA" />
<rect x="120" y="216" width="8" height="8" fill="#7DC9EA" />
<rect x="184" y="216" width="8" height="8" fill="#7DC9EA" />
<rect x="128" y="224" width="8" height="8" fill="#7DC9EA" />
<rect x="176" y="224" width="8" height="8" fill="#7DC9EA" />
<rect x="136" y="232" width="40" height="8" fill="#7DC9EA" />
</svg>